<svg xmlns="http://www.w3.org/2000/svg" xmlns:xlink="http://www.w3.org/1999/xlink" width="2000" zoomAndPan="magnify" viewBox="0 0 1500 1499.999933" height="2000" preserveAspectRatio="xMidYMid meet" version="1.0"><defs><clipPath id="5bdd0c323d"><path d="M 110 1493.714844 L 150.234375 1493.714844 L 150.234375 1500 L 110 1500 Z M 110 1493.714844 " clip-rule="nonzero"/></clipPath><clipPath id="277892d398"><path d="M 149.121094 1495.53125 C 148.378906 1494.867188 147.324219 1494.621094 146.253906 1494.847656 L 121.648438 1500.085938 C 121.050781 1500.207031 120.511719 1500.476562 120.078125 1500.851562 L 117.8125 1496.605469 C 117.6875 1496.359375 117.480469 1496.171875 117.234375 1496.070312 L 112.675781 1494.039062 C 112.054688 1493.769531 111.335938 1494.039062 111.066406 1494.660156 C 110.796875 1495.28125 111.066406 1496.007812 111.683594 1496.277344 L 115.851562 1498.136719 L 118.160156 1502.445312 L 124.90625 1514.800781 L 125.8125 1516.496094 C 126.660156 1518.007812 128.472656 1519 130.226562 1519 C 130.535156 1519 130.824219 1518.980469 131.136719 1518.917969 L 136.910156 1517.699219 C 136.910156 1517.699219 142.953125 1516.414062 145.261719 1515.917969 C 145.839844 1515.792969 146.007812 1516.0625 146.046875 1516.25 C 146.089844 1516.433594 146.066406 1516.746094 145.46875 1516.871094 L 133.238281 1519.457031 C 130.761719 1519.996094 129.382812 1521.753906 129.484375 1524.320312 C 129.484375 1524.339844 129.484375 1524.363281 129.484375 1524.382812 C 129.464844 1524.632812 129.464844 1524.902344 129.527344 1525.167969 C 129.816406 1526.535156 131.113281 1527.40625 132.453125 1527.113281 C 133.773438 1526.824219 134.621094 1525.5 134.332031 1524.132812 C 134.144531 1523.246094 133.507812 1522.5625 132.722656 1522.273438 C 132.992188 1522.066406 133.339844 1521.921875 133.773438 1521.835938 L 142.3125 1520.015625 C 141.46875 1520.554688 140.992188 1521.589844 141.222656 1522.664062 C 141.507812 1524.03125 142.808594 1524.902344 144.128906 1524.609375 C 145.449219 1524.320312 146.292969 1522.996094 146.007812 1521.628906 C 145.777344 1520.554688 144.933594 1519.808594 143.921875 1519.664062 L 145.945312 1519.230469 C 147.078125 1518.980469 147.699219 1518.359375 148.007812 1517.863281 C 148.417969 1517.222656 148.5625 1516.457031 148.398438 1515.691406 C 148.109375 1514.304688 146.707031 1513.039062 144.726562 1513.476562 C 144.273438 1513.578125 143.65625 1513.703125 142.996094 1513.847656 L 130.621094 1516.476562 C 129.753906 1516.664062 128.597656 1516.167969 128.0625 1515.441406 C 128.183594 1515.441406 128.308594 1515.460938 128.433594 1515.460938 C 128.742188 1515.460938 129.03125 1515.441406 129.339844 1515.378906 L 145.429688 1511.945312 C 147.410156 1511.53125 149.121094 1509.605469 149.304688 1507.578125 L 150.152344 1498.285156 C 150.234375 1497.207031 149.863281 1496.191406 149.121094 1495.53125 Z M 137.941406 1503.832031 L 132.824219 1504.925781 L 131.878906 1500.414062 L 136.992188 1499.316406 Z M 133.339844 1507.328125 L 138.457031 1506.230469 L 139.40625 1510.742188 L 134.289062 1511.839844 Z M 146.75 1497.25 C 146.851562 1497.226562 146.933594 1497.207031 147.039062 1497.207031 C 147.222656 1497.207031 147.386719 1497.25 147.492188 1497.351562 C 147.65625 1497.496094 147.71875 1497.746094 147.699219 1498.078125 L 147.367188 1501.824219 L 140.355469 1503.3125 L 139.40625 1498.800781 Z M 121.523438 1502.898438 C 121.605469 1502.710938 121.832031 1502.566406 122.164062 1502.484375 L 129.484375 1500.933594 L 130.433594 1505.445312 L 123.460938 1506.933594 L 121.625 1503.644531 C 121.460938 1503.355469 121.441406 1503.085938 121.523438 1502.898438 Z M 128.824219 1513 C 127.898438 1513.1875 126.617188 1512.625 126.164062 1511.777344 L 124.699219 1509.148438 L 130.929688 1507.824219 L 131.878906 1512.335938 Z M 144.914062 1509.5625 L 141.796875 1510.226562 L 140.847656 1505.714844 L 147.121094 1504.367188 L 146.851562 1507.347656 C 146.769531 1508.320312 145.839844 1509.378906 144.914062 1509.5625 Z M 144.914062 1509.5625 " clip-rule="nonzero"/></clipPath><linearGradient x1="72.482768" gradientTransform="matrix(0.206257, 0, 0, 0.206976, 98.587393, 1484.684971)" y1="134.37102" x2="261.17099" gradientUnits="userSpaceOnUse" y2="92.86056" id="b7b12cd23a"><stop stop-opacity="1" stop-color="rgb(94.898987%, 22.349548%, 10.198975%)" offset="0"/><stop stop-opacity="1" stop-color="rgb(94.90509%, 22.389221%, 10.188293%)" offset="0.0334668"/><stop stop-opacity="1" stop-color="rgb(94.911194%, 22.428894%, 10.177612%)" offset="0.125"/><stop stop-opacity="1" stop-color="rgb(94.940186%, 22.610474%, 10.125732%)" offset="0.132812"/><stop stop-opacity="1" stop-color="rgb(94.998169%, 22.976685%, 10.021973%)" offset="0.140625"/><stop stop-opacity="1" stop-color="rgb(95.056152%, 23.34137%, 9.919739%)" offset="0.148437"/><stop stop-opacity="1" stop-color="rgb(95.114136%, 23.706055%, 9.817505%)" offset="0.15625"/><stop stop-opacity="1" stop-color="rgb(95.172119%, 24.07074%, 9.715271%)" offset="0.164062"/><stop stop-opacity="1" stop-color="rgb(95.230103%, 24.436951%, 9.613037%)" offset="0.171875"/><stop stop-opacity="1" stop-color="rgb(95.288086%, 24.801636%, 9.510803%)" offset="0.179688"/><stop stop-opacity="1" stop-color="rgb(95.346069%, 25.166321%, 9.408569%)" offset="0.1875"/><stop stop-opacity="1" stop-color="rgb(95.404053%, 25.531006%, 9.306335%)" offset="0.195312"/><stop stop-opacity="1" stop-color="rgb(95.462036%, 25.897217%, 9.204102%)" offset="0.203125"/><stop stop-opacity="1" stop-color="rgb(95.52002%, 26.261902%, 9.100342%)" offset="0.210938"/><stop stop-opacity="1" stop-color="rgb(95.578003%, 26.626587%, 8.998108%)" offset="0.21875"/><stop stop-opacity="1" stop-color="rgb(95.635986%, 26.991272%, 8.895874%)" offset="0.226562"/><stop stop-opacity="1" stop-color="rgb(95.69397%, 27.357483%, 8.79364%)" offset="0.234375"/><stop stop-opacity="1" stop-color="rgb(95.751953%, 27.722168%, 8.691406%)" offset="0.242187"/><stop stop-opacity="1" stop-color="rgb(95.809937%, 28.086853%, 8.589172%)" offset="0.25"/><stop stop-opacity="1" stop-color="rgb(95.866394%, 28.453064%, 8.486938%)" offset="0.257812"/><stop stop-opacity="1" stop-color="rgb(95.924377%, 28.817749%, 8.384705%)" offset="0.265625"/><stop stop-opacity="1" stop-color="rgb(95.982361%, 29.182434%, 8.282471%)" offset="0.273438"/><stop stop-opacity="1" stop-color="rgb(96.040344%, 29.547119%, 8.178711%)" offset="0.28125"/><stop stop-opacity="1" stop-color="rgb(96.098328%, 29.91333%, 8.076477%)" offset="0.289062"/><stop stop-opacity="1" stop-color="rgb(96.156311%, 30.278015%, 7.974243%)" offset="0.296875"/><stop stop-opacity="1" stop-color="rgb(96.214294%, 30.6427%, 7.872009%)" offset="0.304688"/><stop stop-opacity="1" stop-color="rgb(96.272278%, 31.007385%, 7.769775%)" offset="0.3125"/><stop stop-opacity="1" stop-color="rgb(96.330261%, 31.373596%, 7.667542%)" offset="0.320312"/><stop stop-opacity="1" stop-color="rgb(96.388245%, 31.738281%, 7.565308%)" offset="0.328125"/><stop stop-opacity="1" stop-color="rgb(96.446228%, 32.102966%, 7.463074%)" offset="0.335938"/><stop stop-opacity="1" stop-color="rgb(96.504211%, 32.467651%, 7.36084%)" offset="0.34375"/><stop stop-opacity="1" stop-color="rgb(96.562195%, 32.833862%, 7.258606%)" offset="0.351562"/><stop stop-opacity="1" stop-color="rgb(96.620178%, 33.198547%, 7.154846%)" offset="0.359375"/><stop stop-opacity="1" stop-color="rgb(96.678162%, 33.563232%, 7.052612%)" offset="0.367188"/><stop stop-opacity="1" stop-color="rgb(96.736145%, 33.927917%, 6.950378%)" offset="0.375"/><stop stop-opacity="1" stop-color="rgb(96.794128%, 34.294128%, 6.848145%)" offset="0.382812"/><stop stop-opacity="1" stop-color="rgb(96.852112%, 34.658813%, 6.745911%)" offset="0.390625"/><stop stop-opacity="1" stop-color="rgb(96.908569%, 35.023499%, 6.643677%)" offset="0.398437"/><stop stop-opacity="1" stop-color="rgb(96.966553%, 35.389709%, 6.541443%)" offset="0.40625"/><stop stop-opacity="1" stop-color="rgb(97.024536%, 35.754395%, 6.439209%)" offset="0.414062"/><stop stop-opacity="1" stop-color="rgb(97.08252%, 36.11908%, 6.336975%)" offset="0.421875"/><stop stop-opacity="1" stop-color="rgb(97.140503%, 36.483765%, 6.233215%)" offset="0.429688"/><stop stop-opacity="1" stop-color="rgb(97.198486%, 36.849976%, 6.130981%)" offset="0.4375"/><stop stop-opacity="1" stop-color="rgb(97.25647%, 37.214661%, 6.028748%)" offset="0.445312"/><stop stop-opacity="1" stop-color="rgb(97.314453%, 37.579346%, 5.926514%)" offset="0.453125"/><stop stop-opacity="1" stop-color="rgb(97.372437%, 37.944031%, 5.82428%)" offset="0.460938"/><stop stop-opacity="1" stop-color="rgb(97.43042%, 38.310242%, 5.722046%)" offset="0.46875"/><stop stop-opacity="1" stop-color="rgb(97.488403%, 38.674927%, 5.619812%)" offset="0.476562"/><stop stop-opacity="1" stop-color="rgb(97.546387%, 39.039612%, 5.517578%)" offset="0.484375"/><stop stop-opacity="1" stop-color="rgb(97.60437%, 39.404297%, 5.415344%)" offset="0.492187"/><stop stop-opacity="1" stop-color="rgb(97.662354%, 39.770508%, 5.311584%)" offset="0.5"/><stop stop-opacity="1" stop-color="rgb(97.720337%, 40.135193%, 5.209351%)" offset="0.507813"/><stop stop-opacity="1" stop-color="rgb(97.77832%, 40.499878%, 5.107117%)" offset="0.515625"/><stop stop-opacity="1" stop-color="rgb(97.836304%, 40.866089%, 5.004883%)" offset="0.523438"/><stop stop-opacity="1" stop-color="rgb(97.892761%, 41.230774%, 4.902649%)" offset="0.53125"/><stop stop-opacity="1" stop-color="rgb(97.950745%, 41.595459%, 4.800415%)" offset="0.539062"/><stop stop-opacity="1" stop-color="rgb(98.008728%, 41.960144%, 4.698181%)" offset="0.546875"/><stop stop-opacity="1" stop-color="rgb(98.066711%, 42.326355%, 4.595947%)" offset="0.554688"/><stop stop-opacity="1" stop-color="rgb(98.124695%, 42.69104%, 4.493713%)" offset="0.5625"/><stop stop-opacity="1" stop-color="rgb(98.182678%, 43.055725%, 4.391479%)" offset="0.570312"/><stop stop-opacity="1" stop-color="rgb(98.240662%, 43.42041%, 4.28772%)" offset="0.578125"/><stop stop-opacity="1" stop-color="rgb(98.298645%, 43.786621%, 4.185486%)" offset="0.585937"/><stop stop-opacity="1" stop-color="rgb(98.356628%, 44.151306%, 4.083252%)" offset="0.59375"/><stop stop-opacity="1" stop-color="rgb(98.414612%, 44.515991%, 3.981018%)" offset="0.601563"/><stop stop-opacity="1" stop-color="rgb(98.472595%, 44.880676%, 3.878784%)" offset="0.609375"/><stop stop-opacity="1" stop-color="rgb(98.530579%, 45.246887%, 3.77655%)" offset="0.617188"/><stop stop-opacity="1" stop-color="rgb(98.588562%, 45.611572%, 3.674316%)" offset="0.625"/><stop stop-opacity="1" stop-color="rgb(98.646545%, 45.976257%, 3.572083%)" offset="0.632812"/><stop stop-opacity="1" stop-color="rgb(98.704529%, 46.342468%, 3.469849%)" offset="0.640625"/><stop stop-opacity="1" stop-color="rgb(98.762512%, 46.707153%, 3.366089%)" offset="0.648438"/><stop stop-opacity="1" stop-color="rgb(98.820496%, 47.071838%, 3.263855%)" offset="0.65625"/><stop stop-opacity="1" stop-color="rgb(98.878479%, 47.436523%, 3.161621%)" offset="0.664062"/><stop stop-opacity="1" stop-color="rgb(98.934937%, 47.802734%, 3.059387%)" offset="0.671875"/><stop stop-opacity="1" stop-color="rgb(98.99292%, 48.167419%, 2.957153%)" offset="0.679687"/><stop stop-opacity="1" stop-color="rgb(99.050903%, 48.532104%, 2.854919%)" offset="0.6875"/><stop stop-opacity="1" stop-color="rgb(99.108887%, 48.89679%, 2.752686%)" offset="0.695312"/><stop stop-opacity="1" stop-color="rgb(99.16687%, 49.263%, 2.650452%)" offset="0.703125"/><stop stop-opacity="1" stop-color="rgb(99.224854%, 49.627686%, 2.548218%)" offset="0.710938"/><stop stop-opacity="1" stop-color="rgb(99.282837%, 49.992371%, 2.444458%)" offset="0.71875"/><stop stop-opacity="1" stop-color="rgb(99.34082%, 50.357056%, 2.342224%)" offset="0.726562"/><stop stop-opacity="1" stop-color="rgb(99.398804%, 50.723267%, 2.23999%)" offset="0.734375"/><stop stop-opacity="1" stop-color="rgb(99.456787%, 51.087952%, 2.137756%)" offset="0.742188"/><stop stop-opacity="1" stop-color="rgb(99.514771%, 51.452637%, 2.035522%)" offset="0.75"/><stop stop-opacity="1" stop-color="rgb(99.572754%, 51.817322%, 1.933289%)" offset="0.757812"/><stop stop-opacity="1" stop-color="rgb(99.630737%, 52.183533%, 1.831055%)" offset="0.765625"/><stop stop-opacity="1" stop-color="rgb(99.688721%, 52.548218%, 1.728821%)" offset="0.773437"/><stop stop-opacity="1" stop-color="rgb(99.746704%, 52.912903%, 1.626587%)" offset="0.78125"/><stop stop-opacity="1" stop-color="rgb(99.804688%, 53.279114%, 1.524353%)" offset="0.789062"/><stop stop-opacity="1" stop-color="rgb(99.862671%, 53.643799%, 1.420593%)" offset="0.796875"/><stop stop-opacity="1" stop-color="rgb(99.919128%, 54.008484%, 1.318359%)" offset="0.804688"/><stop stop-opacity="1" stop-color="rgb(99.97406%, 54.350281%, 1.223755%)" offset="0.8125"/><stop stop-opacity="1" stop-color="rgb(100%, 54.508972%, 1.179504%)" offset="0.875"/><stop stop-opacity="1" stop-color="rgb(100%, 54.508972%, 1.179504%)" offset="0.966533"/><stop stop-opacity="1" stop-color="rgb(100%, 54.508972%, 1.179504%)" offset="1"/></linearGradient><clipPath id="d832e0bc89"><path d="M 205.539062 235 L 1291 235 L 1291 940 L 205.539062 940 Z M 205.539062 235 " clip-rule="nonzero"/></clipPath></defs><g clip-path="url(#5bdd0c323d)"><g clip-path="url(#277892d398)"><path fill="url(#b7b12cd23a)" d="M 110.796875 1493.769531 L 110.796875 1500 L 150.234375 1500 L 150.234375 1493.769531 Z M 110.796875 1493.769531 " fill-rule="nonzero"/></g></g><g clip-path="url(#d832e0bc89)"><path fill="#ffffff" d="M 1185.953125 424.09375 L 545.933594 424.09375 C 544.824219 424.09375 543.714844 424.148438 542.609375 424.257812 C 541.503906 424.367188 540.40625 424.53125 539.316406 424.746094 C 538.230469 424.960938 537.152344 425.230469 536.089844 425.554688 C 535.027344 425.875 533.984375 426.25 532.957031 426.675781 C 531.929688 427.101562 530.929688 427.574219 529.949219 428.097656 C 528.96875 428.621094 528.019531 429.191406 527.09375 429.808594 C 526.171875 430.425781 525.28125 431.085938 524.421875 431.792969 C 523.5625 432.496094 522.742188 433.242188 521.957031 434.027344 C 521.171875 434.8125 520.425781 435.632812 519.722656 436.492188 C 519.015625 437.351562 518.355469 438.242188 517.738281 439.164062 C 517.121094 440.085938 516.550781 441.039062 516.027344 442.019531 C 515.503906 442.996094 515.03125 444 514.605469 445.027344 C 514.179688 446.050781 513.808594 447.097656 513.484375 448.160156 C 513.164062 449.222656 512.894531 450.296875 512.675781 451.386719 C 512.460938 452.476562 512.296875 453.574219 512.1875 454.679688 C 512.078125 455.785156 512.023438 456.890625 512.023438 458.003906 C 512.023438 459.113281 512.078125 460.21875 512.1875 461.324219 C 512.296875 462.429688 512.460938 463.527344 512.675781 464.617188 C 512.894531 465.707031 513.164062 466.78125 513.484375 467.84375 C 513.808594 468.90625 514.179688 469.953125 514.605469 470.976562 C 515.03125 472.003906 515.503906 473.007812 516.027344 473.984375 C 516.550781 474.964844 517.121094 475.917969 517.738281 476.839844 C 518.355469 477.761719 519.015625 478.65625 519.722656 479.511719 C 520.425781 480.371094 521.171875 481.191406 521.957031 481.976562 C 522.742188 482.761719 523.5625 483.507812 524.421875 484.214844 C 525.28125 484.917969 526.171875 485.578125 527.09375 486.195312 C 528.019531 486.8125 528.96875 487.382812 529.949219 487.90625 C 530.929688 488.429688 531.929688 488.902344 532.957031 489.328125 C 533.984375 489.753906 535.027344 490.128906 536.089844 490.449219 C 537.152344 490.773438 538.230469 491.042969 539.316406 491.257812 C 540.40625 491.476562 541.503906 491.636719 542.609375 491.746094 C 543.714844 491.855469 544.824219 491.910156 545.933594 491.910156 L 1185.953125 491.910156 C 1186.734375 491.910156 1187.515625 491.933594 1188.292969 491.980469 C 1189.074219 492.03125 1189.851562 492.105469 1190.625 492.203125 C 1191.402344 492.300781 1192.171875 492.425781 1192.941406 492.574219 C 1193.707031 492.71875 1194.46875 492.890625 1195.226562 493.085938 C 1195.980469 493.285156 1196.730469 493.503906 1197.472656 493.746094 C 1198.214844 493.992188 1198.949219 494.257812 1199.675781 494.550781 C 1200.398438 494.839844 1201.117188 495.152344 1201.820312 495.488281 C 1202.527344 495.824219 1203.21875 496.183594 1203.902344 496.5625 C 1204.585938 496.945312 1205.253906 497.34375 1205.910156 497.769531 C 1206.570312 498.191406 1207.210938 498.632812 1207.839844 499.097656 C 1208.46875 499.5625 1209.082031 500.046875 1209.679688 500.546875 C 1210.277344 501.050781 1210.859375 501.570312 1211.425781 502.113281 C 1211.988281 502.652344 1212.535156 503.210938 1213.066406 503.785156 C 1213.59375 504.359375 1214.105469 504.949219 1214.597656 505.558594 C 1215.089844 506.164062 1215.5625 506.785156 1216.011719 507.421875 C 1216.464844 508.0625 1216.894531 508.710938 1217.308594 509.375 C 1217.71875 510.039062 1218.105469 510.71875 1218.472656 511.40625 C 1218.839844 512.097656 1219.1875 512.796875 1219.507812 513.507812 C 1219.832031 514.21875 1220.132812 514.941406 1220.410156 515.671875 C 1220.6875 516.402344 1220.941406 517.140625 1221.167969 517.886719 C 1221.398438 518.632812 1221.605469 519.386719 1221.789062 520.148438 C 1221.96875 520.90625 1222.128906 521.671875 1222.261719 522.441406 C 1222.394531 523.210938 1222.503906 523.984375 1222.585938 524.761719 C 1222.671875 525.539062 1222.730469 526.316406 1222.765625 527.097656 C 1222.800781 527.878906 1222.808594 528.660156 1222.792969 529.441406 C 1222.777344 530.222656 1222.738281 531 1222.671875 531.78125 C 1222.609375 532.558594 1222.519531 533.335938 1222.40625 534.105469 C 1222.289062 534.878906 1222.152344 535.648438 1221.988281 536.414062 C 1221.824219 537.175781 1221.636719 537.933594 1221.425781 538.6875 C 1221.214844 539.4375 1220.980469 540.183594 1220.722656 540.921875 C 1220.460938 541.65625 1220.179688 542.386719 1219.875 543.105469 C 1219.570312 543.824219 1219.242188 544.535156 1218.890625 545.230469 C 1180.140625 623.007812 1124.804688 796.496094 1097.171875 851.71875 C 1096.414062 853.238281 1095.550781 854.699219 1094.585938 856.101562 C 1093.621094 857.503906 1092.566406 858.832031 1091.417969 860.089844 C 1090.269531 861.34375 1089.042969 862.515625 1087.730469 863.601562 C 1086.421875 864.6875 1085.042969 865.675781 1083.59375 866.570312 C 1082.148438 867.464844 1080.644531 868.253906 1079.085938 868.9375 C 1077.53125 869.625 1075.933594 870.199219 1074.296875 870.664062 C 1072.660156 871.128906 1071 871.476562 1069.3125 871.710938 C 1067.628906 871.945312 1065.9375 872.0625 1064.234375 872.0625 L 593.054688 872.0625 C 591.21875 872.0625 589.390625 871.929688 587.574219 871.660156 C 585.757812 871.386719 583.972656 870.984375 582.214844 870.445312 C 580.457031 869.90625 578.753906 869.242188 577.097656 868.449219 C 575.4375 867.65625 573.851562 866.742188 572.332031 865.710938 C 570.808594 864.683594 569.375 863.542969 568.023438 862.296875 C 566.675781 861.054688 565.425781 859.714844 564.273438 858.28125 C 563.125 856.851562 562.085938 855.339844 561.164062 853.753906 C 560.238281 852.164062 559.4375 850.519531 558.757812 848.8125 C 558.757812 848.421875 452.773438 372.941406 452.773438 372.941406 C 452.238281 370.53125 451.65625 368.128906 451.019531 365.742188 C 450.382812 363.351562 449.699219 360.980469 448.960938 358.621094 C 448.226562 356.261719 447.441406 353.917969 446.605469 351.59375 C 445.769531 349.265625 444.886719 346.960938 443.953125 344.671875 C 443.023438 342.382812 442.042969 340.117188 441.011719 337.867188 C 439.984375 335.621094 438.910156 333.398438 437.785156 331.195312 C 436.664062 328.992188 435.496094 326.816406 434.28125 324.664062 C 433.066406 322.511719 431.808594 320.386719 430.503906 318.289062 C 429.199219 316.1875 427.851562 314.117188 426.460938 312.078125 C 425.066406 310.035156 423.632812 308.023438 422.15625 306.042969 C 420.679688 304.0625 419.160156 302.113281 417.601562 300.195312 C 416.042969 298.277344 414.441406 296.394531 412.804688 294.542969 C 411.164062 292.695312 409.488281 290.882812 407.773438 289.101562 C 406.054688 287.324219 404.304688 285.582031 402.515625 283.878906 C 400.726562 282.171875 398.902344 280.507812 397.042969 278.878906 C 395.179688 277.253906 393.289062 275.664062 391.363281 274.117188 C 389.433594 272.570312 387.476562 271.066406 385.484375 269.601562 C 383.496094 268.136719 381.472656 266.714844 379.425781 265.335938 C 377.375 263.957031 375.292969 262.621094 373.1875 261.328125 C 371.082031 260.039062 368.945312 258.792969 366.789062 257.589844 C 364.628906 256.390625 362.445312 255.234375 360.234375 254.128906 C 358.027344 253.019531 355.796875 251.957031 353.542969 250.941406 C 351.289062 249.929688 349.015625 248.960938 346.71875 248.042969 C 344.425781 247.125 342.113281 246.257812 339.78125 245.4375 C 337.453125 244.617188 335.105469 243.84375 332.742188 243.125 C 330.375 242.402344 328 241.730469 325.605469 241.109375 C 323.214844 240.492188 320.8125 239.921875 318.394531 239.402344 C 315.980469 238.882812 313.554688 238.414062 311.117188 238 C 308.679688 237.582031 306.238281 237.21875 303.785156 236.902344 C 301.335938 236.589844 298.878906 236.328125 296.414062 236.121094 C 293.953125 235.910156 291.488281 235.753906 289.019531 235.648438 C 286.550781 235.542969 284.078125 235.492188 281.609375 235.492188 L 239.484375 235.492188 C 238.359375 235.4375 237.234375 235.445312 236.109375 235.507812 C 234.984375 235.574219 233.863281 235.699219 232.75 235.878906 C 231.636719 236.058594 230.539062 236.300781 229.449219 236.59375 C 228.363281 236.890625 227.292969 237.242188 226.242188 237.648438 C 225.191406 238.058594 224.164062 238.519531 223.160156 239.03125 C 222.15625 239.546875 221.183594 240.113281 220.238281 240.726562 C 219.292969 241.34375 218.382812 242.007812 217.507812 242.71875 C 216.632812 243.429688 215.796875 244.183594 215 244.980469 C 214.203125 245.777344 213.449219 246.613281 212.742188 247.492188 C 212.03125 248.367188 211.371094 249.277344 210.753906 250.222656 C 210.140625 251.167969 209.578125 252.140625 209.0625 253.144531 C 208.550781 254.148438 208.089844 255.175781 207.683594 256.230469 C 207.277344 257.28125 206.925781 258.351562 206.632812 259.4375 C 206.335938 260.527344 206.101562 261.628906 205.917969 262.742188 C 205.738281 263.851562 205.617188 264.972656 205.554688 266.097656 C 205.492188 267.222656 205.484375 268.351562 205.539062 269.476562 C 205.542969 270.585938 205.597656 271.691406 205.710938 272.796875 C 205.820312 273.902344 205.984375 274.996094 206.203125 276.085938 C 206.421875 277.171875 206.691406 278.25 207.015625 279.308594 C 207.339844 280.371094 207.714844 281.414062 208.140625 282.441406 C 208.566406 283.464844 209.042969 284.464844 209.566406 285.445312 C 210.089844 286.421875 210.660156 287.375 211.277344 288.296875 C 211.894531 289.21875 212.554688 290.109375 213.261719 290.964844 C 213.964844 291.824219 214.707031 292.644531 215.492188 293.429688 C 216.277344 294.214844 217.097656 294.957031 217.957031 295.664062 C 218.816406 296.367188 219.703125 297.027344 220.628906 297.644531 C 221.550781 298.261719 222.5 298.832031 223.476562 299.355469 C 224.457031 299.882812 225.457031 300.355469 226.484375 300.78125 C 227.507812 301.207031 228.550781 301.582031 229.613281 301.90625 C 230.675781 302.230469 231.75 302.5 232.835938 302.71875 C 233.925781 302.9375 235.023438 303.101562 236.125 303.214844 C 237.230469 303.324219 238.335938 303.382812 239.445312 303.382812 L 281.609375 303.382812 C 284.636719 303.382812 287.660156 303.507812 290.679688 303.765625 C 293.699219 304.019531 296.699219 304.402344 299.6875 304.910156 C 302.671875 305.417969 305.632812 306.050781 308.566406 306.808594 C 311.496094 307.566406 314.394531 308.449219 317.25 309.453125 C 320.109375 310.453125 322.921875 311.578125 325.683594 312.816406 C 328.445312 314.058594 331.152344 315.414062 333.800781 316.882812 C 336.449219 318.351562 339.03125 319.929688 341.546875 321.617188 C 344.0625 323.304688 346.503906 325.097656 348.867188 326.988281 C 351.230469 328.882812 353.511719 330.875 355.707031 332.960938 C 357.902344 335.046875 360.007812 337.222656 362.019531 339.488281 C 364.03125 341.75 365.945312 344.097656 367.757812 346.523438 C 369.574219 348.949219 371.28125 351.445312 372.882812 354.015625 C 374.488281 356.585938 375.980469 359.21875 377.359375 361.914062 C 378.738281 364.613281 380.003906 367.363281 381.152344 370.164062 C 382.300781 372.96875 383.328125 375.816406 384.234375 378.703125 C 385.140625 381.59375 385.925781 384.519531 386.585938 387.472656 L 492.882812 865.007812 C 493.152344 866.09375 493.464844 867.257812 493.8125 868.34375 C 494.671875 870.925781 495.632812 873.472656 496.695312 875.980469 C 497.753906 878.488281 498.910156 880.953125 500.164062 883.371094 C 501.417969 885.789062 502.761719 888.15625 504.199219 890.46875 C 505.636719 892.78125 507.160156 895.035156 508.777344 897.230469 C 510.390625 899.425781 512.085938 901.550781 513.863281 903.613281 C 515.644531 905.675781 517.5 907.664062 519.4375 909.582031 C 521.371094 911.5 523.378906 913.335938 525.457031 915.097656 C 527.535156 916.855469 529.679688 918.53125 531.890625 920.125 C 534.097656 921.71875 536.367188 923.222656 538.691406 924.636719 C 541.019531 926.054688 543.398438 927.375 545.828125 928.605469 C 548.257812 929.835938 550.734375 930.96875 553.25 932.003906 C 555.769531 933.039062 558.324219 933.976562 560.917969 934.816406 C 563.507812 935.652344 566.128906 936.386719 568.777344 937.019531 C 571.429688 937.652344 574.097656 938.179688 576.789062 938.601562 C 579.480469 939.027344 582.179688 939.34375 584.898438 939.558594 C 587.613281 939.769531 590.332031 939.875 593.054688 939.878906 L 1064.234375 939.878906 C 1066.648438 939.878906 1069.0625 939.792969 1071.46875 939.625 C 1073.878906 939.460938 1076.277344 939.207031 1078.671875 938.875 C 1081.0625 938.542969 1083.4375 938.125 1085.800781 937.628906 C 1088.164062 937.132812 1090.507812 936.550781 1092.828125 935.890625 C 1095.152344 935.230469 1097.449219 934.492188 1099.71875 933.671875 C 1101.992188 932.855469 1104.230469 931.957031 1106.441406 930.984375 C 1108.652344 930.007812 1110.824219 928.960938 1112.960938 927.835938 C 1115.097656 926.710938 1117.191406 925.511719 1119.246094 924.242188 C 1121.300781 922.972656 1123.308594 921.636719 1125.269531 920.226562 C 1127.230469 918.816406 1129.140625 917.34375 1131 915.800781 C 1132.855469 914.261719 1134.660156 912.65625 1136.410156 910.992188 C 1138.15625 909.324219 1139.84375 907.601562 1141.472656 905.820312 C 1143.101562 904.035156 1144.667969 902.199219 1146.167969 900.308594 C 1147.671875 898.417969 1149.105469 896.476562 1150.472656 894.488281 C 1151.839844 892.496094 1153.136719 890.460938 1154.359375 888.382812 C 1155.585938 886.300781 1156.738281 884.179688 1157.820312 882.019531 C 1185.410156 826.800781 1240.632812 653.386719 1279.539062 575.535156 C 1280.53125 573.550781 1281.460938 571.539062 1282.324219 569.496094 C 1283.1875 567.453125 1283.988281 565.382812 1284.71875 563.289062 C 1285.453125 561.195312 1286.117188 559.082031 1286.714844 556.945312 C 1287.316406 554.808594 1287.84375 552.65625 1288.304688 550.484375 C 1288.769531 548.316406 1289.160156 546.132812 1289.480469 543.9375 C 1289.804688 541.742188 1290.058594 539.539062 1290.238281 537.328125 C 1290.421875 535.117188 1290.535156 532.902344 1290.574219 530.6875 C 1290.617188 528.46875 1290.589844 526.25 1290.488281 524.035156 C 1290.390625 521.820312 1290.21875 519.609375 1289.980469 517.402344 C 1289.738281 515.195312 1289.429688 513 1289.050781 510.816406 C 1288.671875 508.628906 1288.222656 506.457031 1287.703125 504.300781 C 1287.1875 502.144531 1286.601562 500.003906 1285.945312 497.886719 C 1285.292969 495.765625 1284.570312 493.667969 1283.785156 491.59375 C 1282.996094 489.519531 1282.144531 487.472656 1281.226562 485.453125 C 1280.308594 483.433594 1279.328125 481.445312 1278.285156 479.488281 C 1277.242188 477.53125 1276.136719 475.609375 1274.972656 473.722656 C 1273.804688 471.835938 1272.578125 469.984375 1271.296875 468.175781 C 1270.011719 466.367188 1268.671875 464.601562 1267.277344 462.875 C 1265.878906 461.152344 1264.429688 459.476562 1262.925781 457.84375 C 1261.425781 456.210938 1259.871094 454.628906 1258.269531 453.097656 C 1256.664062 451.5625 1255.015625 450.082031 1253.316406 448.652344 C 1251.617188 447.226562 1249.878906 445.855469 1248.09375 444.535156 C 1246.308594 443.21875 1244.480469 441.960938 1242.617188 440.757812 C 1240.75 439.558594 1238.851562 438.417969 1236.914062 437.335938 C 1234.976562 436.257812 1233.003906 435.238281 1231.003906 434.285156 C 1229 433.328125 1226.96875 432.4375 1224.910156 431.613281 C 1222.851562 430.789062 1220.769531 430.027344 1218.660156 429.335938 C 1216.554688 428.640625 1214.425781 428.015625 1212.28125 427.457031 C 1210.132812 426.898438 1207.96875 426.410156 1205.792969 425.988281 C 1203.613281 425.570312 1201.425781 425.21875 1199.222656 424.9375 C 1197.023438 424.65625 1194.816406 424.445312 1192.601562 424.304688 C 1190.386719 424.164062 1188.171875 424.09375 1185.953125 424.09375 Z M 1185.953125 424.09375 " fill-opacity="1" fill-rule="evenodd"/></g><path fill="#ffffff" d="M 629.90625 979.636719 C 627.640625 979.636719 625.375 979.691406 623.109375 979.804688 C 620.84375 979.914062 618.585938 980.082031 616.328125 980.304688 C 614.070312 980.527344 611.820312 980.804688 609.578125 981.136719 C 607.335938 981.46875 605.101562 981.855469 602.878906 982.296875 C 600.65625 982.742188 598.441406 983.238281 596.242188 983.789062 C 594.042969 984.339844 591.859375 984.945312 589.691406 985.601562 C 587.519531 986.261719 585.367188 986.972656 583.234375 987.734375 C 581.097656 988.5 578.984375 989.316406 576.890625 990.183594 C 574.792969 991.050781 572.722656 991.96875 570.671875 992.9375 C 568.621094 993.910156 566.597656 994.925781 564.597656 995.996094 C 562.597656 997.066406 560.625 998.183594 558.679688 999.347656 C 556.738281 1000.515625 554.820312 1001.726562 552.9375 1002.988281 C 551.050781 1004.246094 549.199219 1005.550781 547.378906 1006.902344 C 545.554688 1008.253906 543.769531 1009.648438 542.015625 1011.085938 C 540.261719 1012.523438 538.546875 1014.003906 536.867188 1015.527344 C 535.1875 1017.050781 533.546875 1018.613281 531.941406 1020.21875 C 530.339844 1021.820312 528.777344 1023.460938 527.253906 1025.144531 C 525.730469 1026.824219 524.25 1028.539062 522.8125 1030.292969 C 521.375 1032.042969 519.980469 1033.832031 518.628906 1035.652344 C 517.277344 1037.472656 515.972656 1039.328125 514.714844 1041.214844 C 513.453125 1043.097656 512.242188 1045.011719 511.078125 1046.957031 C 509.910156 1048.902344 508.792969 1050.875 507.726562 1052.875 C 506.65625 1054.875 505.636719 1056.898438 504.667969 1058.949219 C 503.699219 1061 502.78125 1063.070312 501.914062 1065.167969 C 501.042969 1067.261719 500.230469 1069.375 499.464844 1071.511719 C 498.703125 1073.644531 497.992188 1075.796875 497.332031 1077.96875 C 496.675781 1080.136719 496.070312 1082.324219 495.519531 1084.523438 C 494.96875 1086.722656 494.472656 1088.933594 494.03125 1091.15625 C 493.589844 1093.378906 493.199219 1095.613281 492.867188 1097.855469 C 492.535156 1100.101562 492.257812 1102.347656 492.035156 1104.605469 C 491.816406 1106.863281 491.648438 1109.125 491.535156 1111.386719 C 491.425781 1113.652344 491.371094 1115.917969 491.371094 1118.1875 C 491.371094 1120.453125 491.425781 1122.71875 491.539062 1124.984375 C 491.648438 1127.25 491.816406 1129.507812 492.039062 1131.765625 C 492.261719 1134.023438 492.539062 1136.273438 492.871094 1138.515625 C 493.207031 1140.757812 493.59375 1142.992188 494.035156 1145.214844 C 494.476562 1147.4375 494.976562 1149.648438 495.527344 1151.847656 C 496.078125 1154.046875 496.683594 1156.234375 497.339844 1158.402344 C 498 1160.574219 498.710938 1162.726562 499.472656 1164.859375 C 500.238281 1166.996094 501.054688 1169.109375 501.921875 1171.203125 C 502.789062 1173.296875 503.710938 1175.371094 504.679688 1177.421875 C 505.648438 1179.46875 506.667969 1181.492188 507.738281 1183.492188 C 508.804688 1185.492188 509.921875 1187.464844 511.089844 1189.410156 C 512.253906 1191.355469 513.46875 1193.269531 514.726562 1195.15625 C 515.988281 1197.039062 517.292969 1198.894531 518.644531 1200.714844 C 519.996094 1202.535156 521.390625 1204.320312 522.828125 1206.074219 C 524.265625 1207.828125 525.75 1209.542969 527.269531 1211.222656 C 528.792969 1212.902344 530.355469 1214.542969 531.960938 1216.148438 C 533.5625 1217.75 535.207031 1219.3125 536.886719 1220.835938 C 538.566406 1222.359375 540.285156 1223.839844 542.035156 1225.277344 C 543.789062 1226.714844 545.578125 1228.109375 547.398438 1229.460938 C 549.21875 1230.808594 551.074219 1232.113281 552.957031 1233.375 C 554.84375 1234.632812 556.757812 1235.84375 558.703125 1237.011719 C 560.648438 1238.175781 562.621094 1239.292969 564.621094 1240.363281 C 566.621094 1241.429688 568.644531 1242.449219 570.695312 1243.417969 C 572.746094 1244.386719 574.816406 1245.304688 576.914062 1246.171875 C 579.007812 1247.039062 581.121094 1247.855469 583.257812 1248.617188 C 585.390625 1249.382812 587.542969 1250.09375 589.714844 1250.75 C 591.882812 1251.410156 594.070312 1252.011719 596.269531 1252.5625 C 598.46875 1253.113281 600.679688 1253.609375 602.902344 1254.050781 C 605.128906 1254.496094 607.359375 1254.882812 609.605469 1255.214844 C 611.847656 1255.546875 614.097656 1255.824219 616.351562 1256.046875 C 618.609375 1256.265625 620.871094 1256.433594 623.136719 1256.542969 C 625.398438 1256.65625 627.664062 1256.710938 629.933594 1256.710938 C 632.199219 1256.710938 634.464844 1256.652344 636.730469 1256.542969 C 638.996094 1256.429688 641.257812 1256.261719 643.511719 1256.039062 C 645.769531 1255.816406 648.019531 1255.539062 650.261719 1255.207031 C 652.503906 1254.875 654.738281 1254.484375 656.960938 1254.042969 C 659.183594 1253.601562 661.398438 1253.101562 663.597656 1252.550781 C 665.796875 1252 667.980469 1251.394531 670.148438 1250.734375 C 672.320312 1250.078125 674.472656 1249.367188 676.605469 1248.601562 C 678.742188 1247.835938 680.855469 1247.019531 682.949219 1246.152344 C 685.042969 1245.285156 687.117188 1244.367188 689.167969 1243.394531 C 691.214844 1242.425781 693.238281 1241.40625 695.238281 1240.335938 C 697.238281 1239.269531 699.210938 1238.152344 701.15625 1236.984375 C 703.101562 1235.816406 705.015625 1234.605469 706.898438 1233.34375 C 708.785156 1232.085938 710.636719 1230.78125 712.457031 1229.429688 C 714.28125 1228.078125 716.066406 1226.683594 717.820312 1225.242188 C 719.570312 1223.804688 721.285156 1222.324219 722.964844 1220.800781 C 724.644531 1219.277344 726.289062 1217.714844 727.890625 1216.109375 C 729.492188 1214.507812 731.054688 1212.863281 732.578125 1211.183594 C 734.101562 1209.503906 735.582031 1207.789062 737.019531 1206.035156 C 738.457031 1204.28125 739.851562 1202.492188 741.199219 1200.671875 C 742.550781 1198.851562 743.855469 1196.996094 745.117188 1195.113281 C 746.375 1193.226562 747.585938 1191.3125 748.753906 1189.367188 C 749.917969 1187.421875 751.035156 1185.449219 752.101562 1183.449219 C 753.171875 1181.449219 754.1875 1179.421875 755.15625 1177.375 C 756.128906 1175.324219 757.046875 1173.25 757.914062 1171.15625 C 758.78125 1169.0625 759.59375 1166.945312 760.359375 1164.8125 C 761.121094 1162.675781 761.832031 1160.523438 762.488281 1158.351562 C 763.148438 1156.183594 763.75 1154 764.300781 1151.800781 C 764.851562 1149.597656 765.347656 1147.386719 765.789062 1145.164062 C 766.230469 1142.941406 766.617188 1140.707031 766.949219 1138.464844 C 767.28125 1136.21875 767.558594 1133.972656 767.78125 1131.714844 C 768.003906 1129.457031 768.167969 1127.195312 768.277344 1124.933594 C 768.390625 1122.667969 768.445312 1120.402344 768.445312 1118.132812 C 768.441406 1115.867188 768.386719 1113.601562 768.273438 1111.339844 C 768.160156 1109.074219 767.992188 1106.816406 767.765625 1104.5625 C 767.542969 1102.304688 767.265625 1100.054688 766.929688 1097.816406 C 766.59375 1095.574219 766.207031 1093.339844 765.761719 1091.117188 C 765.320312 1088.894531 764.820312 1086.683594 764.269531 1084.488281 C 763.71875 1082.289062 763.113281 1080.105469 762.453125 1077.9375 C 761.792969 1075.769531 761.082031 1073.617188 760.316406 1071.484375 C 759.550781 1069.351562 758.734375 1067.234375 757.867188 1065.144531 C 757 1063.050781 756.078125 1060.976562 755.109375 1058.929688 C 754.140625 1056.882812 753.121094 1054.859375 752.050781 1052.859375 C 750.980469 1050.859375 749.863281 1048.890625 748.699219 1046.945312 C 747.53125 1045.003906 746.320312 1043.089844 745.058594 1041.203125 C 743.800781 1039.320312 742.496094 1037.46875 741.144531 1035.648438 C 739.792969 1033.828125 738.398438 1032.042969 736.960938 1030.289062 C 735.523438 1028.539062 734.042969 1026.824219 732.519531 1025.144531 C 730.996094 1023.464844 729.433594 1021.824219 727.832031 1020.222656 C 726.226562 1018.621094 724.585938 1017.058594 722.90625 1015.535156 C 721.226562 1014.011719 719.511719 1012.535156 717.761719 1011.097656 C 716.007812 1009.65625 714.222656 1008.265625 712.402344 1006.914062 C 710.582031 1005.5625 708.726562 1004.257812 706.84375 1003 C 704.960938 1001.742188 703.046875 1000.527344 701.101562 999.363281 C 699.15625 998.199219 697.1875 997.082031 695.1875 996.011719 C 693.1875 994.941406 691.164062 993.925781 689.117188 992.953125 C 687.066406 991.984375 684.996094 991.066406 682.902344 990.199219 C 680.808594 989.332031 678.695312 988.515625 676.5625 987.75 C 674.425781 986.988281 672.277344 986.277344 670.105469 985.617188 C 667.9375 984.957031 665.753906 984.351562 663.554688 983.800781 C 661.359375 983.25 659.148438 982.753906 656.925781 982.308594 C 654.703125 981.867188 652.46875 981.480469 650.226562 981.144531 C 647.984375 980.8125 645.738281 980.535156 643.480469 980.308594 C 641.226562 980.085938 638.964844 979.917969 636.703125 979.808594 C 634.4375 979.695312 632.175781 979.636719 629.90625 979.636719 Z M 629.90625 1188.894531 C 628.75 1188.894531 627.59375 1188.867188 626.4375 1188.808594 C 625.28125 1188.753906 624.128906 1188.667969 622.976562 1188.554688 C 621.824219 1188.441406 620.675781 1188.300781 619.53125 1188.128906 C 618.386719 1187.960938 617.246094 1187.761719 616.113281 1187.535156 C 614.976562 1187.308594 613.847656 1187.058594 612.726562 1186.777344 C 611.601562 1186.496094 610.488281 1186.1875 609.378906 1185.851562 C 608.273438 1185.515625 607.175781 1185.152344 606.085938 1184.761719 C 604.996094 1184.371094 603.914062 1183.957031 602.847656 1183.511719 C 601.777344 1183.070312 600.71875 1182.601562 599.671875 1182.105469 C 598.628906 1181.613281 597.59375 1181.089844 596.574219 1180.546875 C 595.550781 1180 594.546875 1179.429688 593.554688 1178.835938 C 592.558594 1178.242188 591.582031 1177.621094 590.621094 1176.980469 C 589.660156 1176.335938 588.710938 1175.667969 587.78125 1174.980469 C 586.851562 1174.289062 585.941406 1173.578125 585.046875 1172.84375 C 584.152344 1172.109375 583.277344 1171.355469 582.417969 1170.578125 C 581.5625 1169.800781 580.722656 1169.003906 579.90625 1168.183594 C 579.085938 1167.367188 578.289062 1166.527344 577.511719 1165.671875 C 576.734375 1164.8125 575.976562 1163.9375 575.242188 1163.042969 C 574.507812 1162.148438 573.796875 1161.238281 573.109375 1160.308594 C 572.417969 1159.378906 571.753906 1158.433594 571.109375 1157.46875 C 570.464844 1156.507812 569.847656 1155.53125 569.25 1154.539062 C 568.65625 1153.546875 568.085938 1152.539062 567.539062 1151.519531 C 566.996094 1150.5 566.476562 1149.464844 565.980469 1148.417969 C 565.484375 1147.371094 565.015625 1146.316406 564.574219 1145.246094 C 564.128906 1144.175781 563.714844 1143.097656 563.324219 1142.007812 C 562.933594 1140.917969 562.570312 1139.820312 562.234375 1138.710938 C 561.898438 1137.605469 561.589844 1136.488281 561.308594 1135.367188 C 561.027344 1134.246094 560.773438 1133.117188 560.546875 1131.980469 C 560.320312 1130.847656 560.121094 1129.707031 559.953125 1128.5625 C 559.78125 1127.417969 559.640625 1126.269531 559.527344 1125.117188 C 559.414062 1123.964844 559.328125 1122.8125 559.273438 1121.65625 C 559.214844 1120.5 559.1875 1119.34375 559.1875 1118.1875 C 559.1875 1117.027344 559.214844 1115.871094 559.269531 1114.714844 C 559.328125 1113.558594 559.410156 1112.40625 559.523438 1111.253906 C 559.636719 1110.101562 559.78125 1108.953125 559.949219 1107.808594 C 560.117188 1106.664062 560.316406 1105.523438 560.542969 1104.390625 C 560.765625 1103.253906 561.019531 1102.125 561.300781 1101.003906 C 561.582031 1099.882812 561.890625 1098.765625 562.226562 1097.660156 C 562.5625 1096.550781 562.925781 1095.453125 563.316406 1094.363281 C 563.703125 1093.273438 564.121094 1092.191406 564.5625 1091.125 C 565.003906 1090.054688 565.472656 1088.996094 565.96875 1087.949219 C 566.464844 1086.902344 566.984375 1085.871094 567.527344 1084.851562 C 568.074219 1083.828125 568.644531 1082.824219 569.238281 1081.828125 C 569.832031 1080.835938 570.453125 1079.859375 571.09375 1078.898438 C 571.738281 1077.933594 572.402344 1076.988281 573.09375 1076.058594 C 573.78125 1075.128906 574.492188 1074.21875 575.226562 1073.320312 C 575.960938 1072.425781 576.714844 1071.550781 577.492188 1070.695312 C 578.269531 1069.835938 579.066406 1068.996094 579.886719 1068.179688 C 580.703125 1067.359375 581.542969 1066.5625 582.398438 1065.785156 C 583.257812 1065.007812 584.132812 1064.25 585.027344 1063.515625 C 585.921875 1062.78125 586.832031 1062.070312 587.761719 1061.382812 C 588.691406 1060.691406 589.636719 1060.023438 590.597656 1059.382812 C 591.5625 1058.738281 592.539062 1058.121094 593.53125 1057.523438 C 594.523438 1056.929688 595.53125 1056.359375 596.550781 1055.8125 C 597.570312 1055.265625 598.605469 1054.746094 599.648438 1054.25 C 600.695312 1053.753906 601.753906 1053.285156 602.824219 1052.84375 C 603.890625 1052.398438 604.972656 1051.984375 606.058594 1051.59375 C 607.148438 1051.203125 608.25 1050.839844 609.355469 1050.503906 C 610.464844 1050.167969 611.578125 1049.859375 612.699219 1049.578125 C 613.824219 1049.296875 614.953125 1049.042969 616.085938 1048.816406 C 617.222656 1048.589844 618.363281 1048.390625 619.507812 1048.21875 C 620.652344 1048.050781 621.800781 1047.910156 622.949219 1047.792969 C 624.101562 1047.679688 625.257812 1047.59375 626.410156 1047.539062 C 627.566406 1047.480469 628.722656 1047.453125 629.882812 1047.453125 C 631.039062 1047.449219 632.195312 1047.480469 633.351562 1047.535156 C 634.507812 1047.589844 635.660156 1047.675781 636.8125 1047.789062 C 637.964844 1047.902344 639.113281 1048.042969 640.257812 1048.214844 C 641.402344 1048.382812 642.542969 1048.578125 643.675781 1048.804688 C 644.8125 1049.03125 645.941406 1049.285156 647.0625 1049.5625 C 648.1875 1049.84375 649.300781 1050.152344 650.410156 1050.488281 C 651.515625 1050.824219 652.617188 1051.1875 653.707031 1051.574219 C 654.796875 1051.964844 655.875 1052.382812 656.945312 1052.824219 C 658.015625 1053.265625 659.070312 1053.734375 660.117188 1054.230469 C 661.164062 1054.722656 662.199219 1055.242188 663.21875 1055.789062 C 664.238281 1056.332031 665.246094 1056.902344 666.238281 1057.496094 C 667.234375 1058.09375 668.210938 1058.710938 669.171875 1059.351562 C 670.136719 1059.996094 671.082031 1060.660156 672.011719 1061.351562 C 672.941406 1062.039062 673.855469 1062.75 674.75 1063.484375 C 675.644531 1064.21875 676.519531 1064.972656 677.378906 1065.75 C 678.234375 1066.527344 679.074219 1067.324219 679.890625 1068.140625 C 680.710938 1068.960938 681.507812 1069.796875 682.285156 1070.65625 C 683.0625 1071.511719 683.820312 1072.386719 684.554688 1073.28125 C 685.289062 1074.175781 686 1075.089844 686.691406 1076.015625 C 687.382812 1076.945312 688.046875 1077.890625 688.691406 1078.855469 C 689.335938 1079.816406 689.953125 1080.792969 690.550781 1081.785156 C 691.144531 1082.777344 691.714844 1083.785156 692.261719 1084.804688 C 692.808594 1085.824219 693.328125 1086.859375 693.824219 1087.902344 C 694.320312 1088.949219 694.789062 1090.007812 695.230469 1091.078125 C 695.675781 1092.144531 696.09375 1093.222656 696.484375 1094.3125 C 696.875 1095.402344 697.238281 1096.5 697.574219 1097.609375 C 697.910156 1098.714844 698.21875 1099.832031 698.5 1100.953125 C 698.78125 1102.074219 699.035156 1103.203125 699.261719 1104.339844 C 699.488281 1105.472656 699.6875 1106.613281 699.859375 1107.757812 C 700.027344 1108.902344 700.171875 1110.050781 700.285156 1111.203125 C 700.398438 1112.355469 700.484375 1113.507812 700.542969 1114.664062 C 700.597656 1115.820312 700.628906 1116.976562 700.628906 1118.132812 C 700.628906 1119.292969 700.597656 1120.449219 700.542969 1121.605469 C 700.484375 1122.761719 700.398438 1123.914062 700.285156 1125.066406 C 700.171875 1126.21875 700.027344 1127.367188 699.859375 1128.511719 C 699.6875 1129.65625 699.488281 1130.796875 699.265625 1131.929688 C 699.039062 1133.066406 698.785156 1134.195312 698.503906 1135.316406 C 698.222656 1136.441406 697.910156 1137.554688 697.574219 1138.664062 C 697.238281 1139.769531 696.875 1140.871094 696.484375 1141.960938 C 696.097656 1143.050781 695.679688 1144.128906 695.234375 1145.199219 C 694.792969 1146.265625 694.324219 1147.324219 693.828125 1148.371094 C 693.335938 1149.417969 692.8125 1150.453125 692.269531 1151.472656 C 691.722656 1152.492188 691.152344 1153.5 690.558594 1154.492188 C 689.960938 1155.484375 689.34375 1156.464844 688.699219 1157.425781 C 688.058594 1158.386719 687.390625 1159.332031 686.703125 1160.265625 C 686.011719 1161.195312 685.300781 1162.105469 684.566406 1163 C 683.832031 1163.894531 683.078125 1164.773438 682.300781 1165.628906 C 681.523438 1166.488281 680.722656 1167.324219 679.90625 1168.144531 C 679.089844 1168.964844 678.25 1169.761719 677.394531 1170.539062 C 676.535156 1171.316406 675.660156 1172.074219 674.765625 1172.808594 C 673.871094 1173.542969 672.957031 1174.253906 672.027344 1174.945312 C 671.101562 1175.632812 670.152344 1176.300781 669.191406 1176.945312 C 668.230469 1177.585938 667.253906 1178.207031 666.261719 1178.800781 C 665.269531 1179.398438 664.261719 1179.96875 663.242188 1180.515625 C 662.21875 1181.0625 661.1875 1181.582031 660.140625 1182.078125 C 659.09375 1182.574219 658.039062 1183.042969 656.96875 1183.488281 C 655.898438 1183.929688 654.820312 1184.347656 653.730469 1184.738281 C 652.640625 1185.128906 651.542969 1185.492188 650.433594 1185.828125 C 649.328125 1186.167969 648.210938 1186.476562 647.089844 1186.757812 C 645.96875 1187.039062 644.839844 1187.296875 643.703125 1187.523438 C 642.570312 1187.75 641.429688 1187.949219 640.285156 1188.117188 C 639.140625 1188.289062 637.992188 1188.433594 636.839844 1188.546875 C 635.6875 1188.660156 634.535156 1188.746094 633.378906 1188.804688 C 632.222656 1188.863281 631.066406 1188.894531 629.90625 1188.894531 Z M 629.90625 1188.894531 " fill-opacity="1" fill-rule="evenodd"/><path fill="#ffffff" d="M 1016.027344 979.636719 C 1013.761719 979.636719 1011.496094 979.691406 1009.230469 979.804688 C 1006.964844 979.914062 1004.703125 980.082031 1002.449219 980.304688 C 1000.191406 980.527344 997.941406 980.804688 995.699219 981.136719 C 993.457031 981.46875 991.222656 981.855469 989 982.296875 C 986.773438 982.742188 984.5625 983.238281 982.363281 983.789062 C 980.164062 984.339844 977.980469 984.945312 975.808594 985.601562 C 973.640625 986.261719 971.488281 986.972656 969.351562 987.734375 C 967.21875 988.5 965.105469 989.316406 963.007812 990.183594 C 960.914062 991.050781 958.84375 991.96875 956.792969 992.9375 C 954.742188 993.910156 952.71875 994.925781 950.71875 995.996094 C 948.71875 997.066406 946.746094 998.183594 944.800781 999.347656 C 942.855469 1000.515625 940.941406 1001.726562 939.058594 1002.988281 C 937.171875 1004.246094 935.320312 1005.550781 933.496094 1006.902344 C 931.675781 1008.253906 929.890625 1009.648438 928.136719 1011.085938 C 926.382812 1012.523438 924.667969 1014.003906 922.988281 1015.527344 C 921.308594 1017.050781 919.667969 1018.613281 918.0625 1020.21875 C 916.460938 1021.820312 914.898438 1023.460938 913.375 1025.144531 C 911.851562 1026.824219 910.371094 1028.539062 908.933594 1030.292969 C 907.496094 1032.042969 906.101562 1033.832031 904.75 1035.652344 C 903.398438 1037.472656 902.09375 1039.328125 900.835938 1041.214844 C 899.574219 1043.097656 898.363281 1045.011719 897.195312 1046.957031 C 896.03125 1048.902344 894.914062 1050.875 893.84375 1052.875 C 892.777344 1054.875 891.757812 1056.898438 890.789062 1058.949219 C 889.820312 1061 888.898438 1063.070312 888.03125 1065.167969 C 887.164062 1067.261719 886.347656 1069.375 885.585938 1071.511719 C 884.820312 1073.644531 884.109375 1075.796875 883.453125 1077.96875 C 882.796875 1080.136719 882.191406 1082.324219 881.640625 1084.523438 C 881.089844 1086.722656 880.59375 1088.933594 880.152344 1091.15625 C 879.707031 1093.378906 879.320312 1095.613281 878.988281 1097.855469 C 878.65625 1100.101562 878.378906 1102.347656 878.15625 1104.605469 C 877.933594 1106.863281 877.769531 1109.125 877.65625 1111.386719 C 877.546875 1113.652344 877.492188 1115.917969 877.492188 1118.1875 C 877.492188 1120.453125 877.546875 1122.71875 877.660156 1124.984375 C 877.769531 1127.25 877.9375 1129.507812 878.160156 1131.765625 C 878.382812 1134.023438 878.660156 1136.273438 878.992188 1138.515625 C 879.324219 1140.757812 879.714844 1142.992188 880.15625 1145.214844 C 880.597656 1147.4375 881.09375 1149.648438 881.644531 1151.847656 C 882.199219 1154.046875 882.800781 1156.234375 883.460938 1158.402344 C 884.121094 1160.574219 884.832031 1162.726562 885.59375 1164.859375 C 886.359375 1166.996094 887.175781 1169.109375 888.042969 1171.203125 C 888.910156 1173.296875 889.828125 1175.371094 890.800781 1177.421875 C 891.769531 1179.46875 892.789062 1181.492188 893.855469 1183.492188 C 894.925781 1185.492188 896.042969 1187.464844 897.210938 1189.410156 C 898.375 1191.355469 899.589844 1193.269531 900.847656 1195.15625 C 902.109375 1197.039062 903.414062 1198.894531 904.765625 1200.714844 C 906.117188 1202.535156 907.511719 1204.320312 908.949219 1206.074219 C 910.386719 1207.828125 911.867188 1209.542969 913.390625 1211.222656 C 914.914062 1212.902344 916.476562 1214.542969 918.082031 1216.148438 C 919.683594 1217.75 921.328125 1219.3125 923.007812 1220.835938 C 924.6875 1222.359375 926.402344 1223.839844 928.15625 1225.277344 C 929.910156 1226.714844 931.695312 1228.109375 933.519531 1229.460938 C 935.339844 1230.808594 937.191406 1232.113281 939.078125 1233.375 C 940.964844 1234.632812 942.878906 1235.84375 944.824219 1237.011719 C 946.769531 1238.175781 948.742188 1239.292969 950.742188 1240.363281 C 952.742188 1241.429688 954.765625 1242.449219 956.816406 1243.417969 C 958.867188 1244.386719 960.9375 1245.304688 963.03125 1246.171875 C 965.128906 1247.039062 967.242188 1247.855469 969.378906 1248.617188 C 971.511719 1249.382812 973.664062 1250.09375 975.835938 1250.75 C 978.003906 1251.410156 980.1875 1252.011719 982.390625 1252.5625 C 984.589844 1253.113281 986.800781 1253.609375 989.023438 1254.050781 C 991.246094 1254.496094 993.480469 1254.882812 995.722656 1255.214844 C 997.96875 1255.546875 1000.21875 1255.824219 1002.472656 1256.046875 C 1004.730469 1256.265625 1006.992188 1256.433594 1009.253906 1256.542969 C 1011.519531 1256.65625 1013.785156 1256.710938 1016.054688 1256.710938 C 1018.320312 1256.710938 1020.585938 1256.652344 1022.851562 1256.542969 C 1025.117188 1256.429688 1027.375 1256.261719 1029.632812 1256.039062 C 1031.890625 1255.816406 1034.140625 1255.539062 1036.382812 1255.207031 C 1038.625 1254.875 1040.859375 1254.484375 1043.082031 1254.042969 C 1045.304688 1253.601562 1047.515625 1253.101562 1049.714844 1252.550781 C 1051.914062 1252 1054.101562 1251.394531 1056.269531 1250.734375 C 1058.4375 1250.078125 1060.589844 1249.367188 1062.726562 1248.601562 C 1064.859375 1247.835938 1066.976562 1247.019531 1069.070312 1246.152344 C 1071.164062 1245.285156 1073.238281 1244.367188 1075.285156 1243.394531 C 1077.335938 1242.425781 1079.359375 1241.40625 1081.359375 1240.335938 C 1083.359375 1239.269531 1085.332031 1238.152344 1087.277344 1236.984375 C 1089.21875 1235.816406 1091.136719 1234.605469 1093.019531 1233.34375 C 1094.90625 1232.085938 1096.757812 1230.78125 1098.578125 1229.429688 C 1100.398438 1228.078125 1102.1875 1226.683594 1103.9375 1225.242188 C 1105.691406 1223.804688 1107.40625 1222.324219 1109.085938 1220.800781 C 1110.765625 1219.277344 1112.40625 1217.714844 1114.011719 1216.109375 C 1115.613281 1214.507812 1117.175781 1212.863281 1118.699219 1211.183594 C 1120.222656 1209.503906 1121.699219 1207.789062 1123.140625 1206.035156 C 1124.578125 1204.28125 1125.972656 1202.492188 1127.320312 1200.671875 C 1128.671875 1198.851562 1129.976562 1196.996094 1131.234375 1195.113281 C 1132.496094 1193.226562 1133.707031 1191.3125 1134.871094 1189.367188 C 1136.039062 1187.421875 1137.152344 1185.449219 1138.222656 1183.449219 C 1139.289062 1181.449219 1140.308594 1179.421875 1141.277344 1177.375 C 1142.246094 1175.324219 1143.164062 1173.25 1144.03125 1171.15625 C 1144.898438 1169.0625 1145.714844 1166.945312 1146.476562 1164.8125 C 1147.242188 1162.675781 1147.953125 1160.523438 1148.609375 1158.351562 C 1149.265625 1156.183594 1149.871094 1154 1150.421875 1151.800781 C 1150.972656 1149.597656 1151.46875 1147.386719 1151.910156 1145.164062 C 1152.351562 1142.941406 1152.738281 1140.707031 1153.070312 1138.464844 C 1153.402344 1136.21875 1153.679688 1133.972656 1153.902344 1131.714844 C 1154.121094 1129.457031 1154.289062 1127.195312 1154.398438 1124.933594 C 1154.511719 1122.667969 1154.566406 1120.402344 1154.5625 1118.132812 C 1154.5625 1115.867188 1154.507812 1113.601562 1154.394531 1111.339844 C 1154.28125 1109.074219 1154.113281 1106.816406 1153.890625 1104.558594 C 1153.667969 1102.304688 1153.386719 1100.054688 1153.054688 1097.8125 C 1152.722656 1095.570312 1152.332031 1093.339844 1151.890625 1091.117188 C 1151.445312 1088.890625 1150.949219 1086.683594 1150.398438 1084.484375 C 1149.84375 1082.285156 1149.238281 1080.101562 1148.582031 1077.933594 C 1147.921875 1075.761719 1147.210938 1073.613281 1146.445312 1071.476562 C 1145.683594 1069.34375 1144.867188 1067.230469 1143.996094 1065.136719 C 1143.128906 1063.042969 1142.210938 1060.972656 1141.242188 1058.921875 C 1140.269531 1056.875 1139.25 1054.851562 1138.183594 1052.851562 C 1137.113281 1050.851562 1135.996094 1048.882812 1134.828125 1046.9375 C 1133.664062 1044.992188 1132.449219 1043.078125 1131.191406 1041.195312 C 1129.929688 1039.3125 1128.625 1037.457031 1127.277344 1035.636719 C 1125.925781 1033.816406 1124.53125 1032.03125 1123.09375 1030.28125 C 1121.652344 1028.527344 1120.171875 1026.8125 1118.652344 1025.132812 C 1117.128906 1023.453125 1115.566406 1021.8125 1113.960938 1020.210938 C 1112.359375 1018.609375 1110.71875 1017.046875 1109.039062 1015.523438 C 1107.359375 1014 1105.644531 1012.523438 1103.890625 1011.082031 C 1102.136719 1009.644531 1100.351562 1008.253906 1098.53125 1006.902344 C 1096.710938 1005.550781 1094.859375 1004.246094 1092.972656 1002.988281 C 1091.089844 1001.730469 1089.175781 1000.515625 1087.230469 999.351562 C 1085.285156 998.1875 1083.3125 997.070312 1081.316406 996 C 1079.316406 994.933594 1077.292969 993.914062 1075.242188 992.945312 C 1073.195312 991.972656 1071.121094 991.054688 1069.027344 990.1875 C 1066.933594 989.320312 1064.820312 988.503906 1062.6875 987.742188 C 1060.550781 986.976562 1058.402344 986.265625 1056.230469 985.609375 C 1054.0625 984.949219 1051.878906 984.34375 1049.679688 983.792969 C 1047.480469 983.242188 1045.269531 982.746094 1043.046875 982.304688 C 1040.824219 981.859375 1038.59375 981.472656 1036.351562 981.140625 C 1034.109375 980.808594 1031.859375 980.53125 1029.601562 980.308594 C 1027.347656 980.085938 1025.085938 979.917969 1022.824219 979.804688 C 1020.558594 979.691406 1018.292969 979.636719 1016.027344 979.636719 Z M 1016.027344 1188.894531 C 1014.871094 1188.894531 1013.714844 1188.867188 1012.558594 1188.808594 C 1011.402344 1188.753906 1010.25 1188.667969 1009.097656 1188.554688 C 1007.945312 1188.441406 1006.796875 1188.300781 1005.652344 1188.128906 C 1004.507812 1187.960938 1003.367188 1187.761719 1002.230469 1187.535156 C 1001.097656 1187.308594 999.96875 1187.058594 998.84375 1186.777344 C 997.722656 1186.496094 996.609375 1186.1875 995.5 1185.851562 C 994.394531 1185.515625 993.292969 1185.152344 992.203125 1184.761719 C 991.117188 1184.371094 990.035156 1183.957031 988.964844 1183.511719 C 987.898438 1183.070312 986.839844 1182.601562 985.792969 1182.105469 C 984.746094 1181.613281 983.714844 1181.089844 982.695312 1180.546875 C 981.671875 1180 980.667969 1179.429688 979.671875 1178.835938 C 978.679688 1178.242188 977.703125 1177.621094 976.742188 1176.980469 C 975.777344 1176.335938 974.832031 1175.667969 973.902344 1174.980469 C 972.972656 1174.289062 972.0625 1173.578125 971.167969 1172.84375 C 970.273438 1172.109375 969.394531 1171.355469 968.539062 1170.578125 C 967.679688 1169.800781 966.84375 1169.003906 966.023438 1168.183594 C 965.207031 1167.367188 964.410156 1166.53125 963.632812 1165.671875 C 962.855469 1164.8125 962.097656 1163.9375 961.363281 1163.042969 C 960.628906 1162.148438 959.917969 1161.238281 959.226562 1160.308594 C 958.539062 1159.378906 957.871094 1158.433594 957.230469 1157.46875 C 956.585938 1156.507812 955.96875 1155.53125 955.371094 1154.539062 C 954.777344 1153.546875 954.207031 1152.539062 953.660156 1151.519531 C 953.117188 1150.5 952.59375 1149.464844 952.101562 1148.417969 C 951.605469 1147.371094 951.136719 1146.316406 950.691406 1145.246094 C 950.25 1144.175781 949.832031 1143.097656 949.445312 1142.007812 C 949.054688 1140.917969 948.691406 1139.820312 948.355469 1138.710938 C 948.019531 1137.605469 947.710938 1136.488281 947.429688 1135.367188 C 947.148438 1134.246094 946.894531 1133.117188 946.667969 1131.980469 C 946.441406 1130.847656 946.242188 1129.707031 946.074219 1128.5625 C 945.902344 1127.417969 945.761719 1126.269531 945.648438 1125.117188 C 945.535156 1123.964844 945.449219 1122.8125 945.390625 1121.65625 C 945.335938 1120.5 945.304688 1119.34375 945.304688 1118.1875 C 945.304688 1117.027344 945.335938 1115.871094 945.390625 1114.714844 C 945.445312 1113.558594 945.53125 1112.40625 945.644531 1111.253906 C 945.757812 1110.101562 945.898438 1108.953125 946.070312 1107.808594 C 946.238281 1106.664062 946.4375 1105.523438 946.664062 1104.390625 C 946.886719 1103.253906 947.140625 1102.125 947.421875 1101.003906 C 947.703125 1099.882812 948.011719 1098.765625 948.347656 1097.660156 C 948.683594 1096.550781 949.046875 1095.453125 949.433594 1094.363281 C 949.824219 1093.273438 950.242188 1092.191406 950.683594 1091.125 C 951.125 1090.054688 951.59375 1088.996094 952.089844 1087.949219 C 952.582031 1086.90625 953.101562 1085.871094 953.648438 1084.851562 C 954.195312 1083.828125 954.765625 1082.824219 955.359375 1081.828125 C 955.953125 1080.835938 956.574219 1079.859375 957.214844 1078.898438 C 957.859375 1077.933594 958.523438 1076.988281 959.210938 1076.058594 C 959.902344 1075.128906 960.613281 1074.21875 961.347656 1073.320312 C 962.082031 1072.425781 962.835938 1071.550781 963.613281 1070.695312 C 964.390625 1069.835938 965.1875 1068.996094 966.007812 1068.179688 C 966.824219 1067.359375 967.660156 1066.5625 968.519531 1065.785156 C 969.375 1065.007812 970.253906 1064.25 971.148438 1063.515625 C 972.042969 1062.78125 972.953125 1062.070312 973.882812 1061.382812 C 974.8125 1060.691406 975.757812 1060.023438 976.71875 1059.382812 C 977.679688 1058.738281 978.660156 1058.121094 979.652344 1057.523438 C 980.644531 1056.929688 981.648438 1056.359375 982.671875 1055.8125 C 983.691406 1055.265625 984.722656 1054.746094 985.769531 1054.25 C 986.816406 1053.757812 987.875 1053.285156 988.941406 1052.84375 C 990.011719 1052.398438 991.089844 1051.984375 992.179688 1051.59375 C 993.269531 1051.203125 994.367188 1050.839844 995.476562 1050.503906 C 996.582031 1050.167969 997.699219 1049.859375 998.820312 1049.578125 C 999.941406 1049.296875 1001.070312 1049.042969 1002.207031 1048.816406 C 1003.339844 1048.589844 1004.480469 1048.390625 1005.625 1048.21875 C 1006.769531 1048.050781 1007.917969 1047.910156 1009.070312 1047.792969 C 1010.222656 1047.679688 1011.375 1047.59375 1012.53125 1047.539062 C 1013.6875 1047.480469 1014.84375 1047.453125 1016 1047.453125 C 1017.160156 1047.449219 1018.316406 1047.480469 1019.472656 1047.535156 C 1020.628906 1047.59375 1021.78125 1047.675781 1022.933594 1047.789062 C 1024.085938 1047.902344 1025.234375 1048.042969 1026.378906 1048.214844 C 1027.523438 1048.382812 1028.664062 1048.578125 1029.796875 1048.804688 C 1030.933594 1049.03125 1032.0625 1049.285156 1033.183594 1049.5625 C 1034.308594 1049.84375 1035.421875 1050.152344 1036.53125 1050.488281 C 1037.636719 1050.824219 1038.734375 1051.1875 1039.824219 1051.574219 C 1040.914062 1051.964844 1041.996094 1052.382812 1043.066406 1052.824219 C 1044.132812 1053.265625 1045.191406 1053.734375 1046.238281 1054.230469 C 1047.285156 1054.722656 1048.316406 1055.242188 1049.339844 1055.789062 C 1050.359375 1056.332031 1051.367188 1056.902344 1052.359375 1057.496094 C 1053.351562 1058.09375 1054.332031 1058.710938 1055.292969 1059.351562 C 1056.253906 1059.996094 1057.203125 1060.660156 1058.132812 1061.351562 C 1059.0625 1062.039062 1059.972656 1062.75 1060.867188 1063.484375 C 1061.761719 1064.21875 1062.640625 1064.972656 1063.496094 1065.75 C 1064.355469 1066.527344 1065.195312 1067.324219 1066.011719 1068.140625 C 1066.832031 1068.960938 1067.628906 1069.796875 1068.40625 1070.65625 C 1069.183594 1071.511719 1069.941406 1072.386719 1070.675781 1073.28125 C 1071.410156 1074.175781 1072.121094 1075.089844 1072.8125 1076.015625 C 1073.5 1076.945312 1074.167969 1077.890625 1074.8125 1078.855469 C 1075.453125 1079.816406 1076.074219 1080.792969 1076.667969 1081.785156 C 1077.265625 1082.777344 1077.835938 1083.785156 1078.382812 1084.804688 C 1078.929688 1085.824219 1079.449219 1086.859375 1079.945312 1087.902344 C 1080.4375 1088.949219 1080.910156 1090.007812 1081.351562 1091.078125 C 1081.796875 1092.144531 1082.210938 1093.222656 1082.601562 1094.3125 C 1082.992188 1095.402344 1083.355469 1096.5 1083.691406 1097.609375 C 1084.03125 1098.714844 1084.339844 1099.832031 1084.621094 1100.953125 C 1084.902344 1102.074219 1085.15625 1103.203125 1085.382812 1104.339844 C 1085.609375 1105.472656 1085.808594 1106.613281 1085.976562 1107.757812 C 1086.148438 1108.902344 1086.289062 1110.050781 1086.40625 1111.203125 C 1086.519531 1112.355469 1086.605469 1113.507812 1086.660156 1114.664062 C 1086.71875 1115.820312 1086.75 1116.976562 1086.75 1118.132812 C 1086.75 1119.292969 1086.71875 1120.449219 1086.664062 1121.605469 C 1086.605469 1122.761719 1086.519531 1123.914062 1086.40625 1125.066406 C 1086.292969 1126.21875 1086.148438 1127.367188 1085.980469 1128.511719 C 1085.808594 1129.65625 1085.609375 1130.796875 1085.382812 1131.929688 C 1085.15625 1133.066406 1084.902344 1134.195312 1084.621094 1135.316406 C 1084.339844 1136.441406 1084.03125 1137.554688 1083.695312 1138.664062 C 1083.359375 1139.769531 1082.996094 1140.871094 1082.605469 1141.960938 C 1082.214844 1143.050781 1081.800781 1144.128906 1081.355469 1145.199219 C 1080.914062 1146.265625 1080.445312 1147.324219 1079.949219 1148.371094 C 1079.453125 1149.417969 1078.933594 1150.453125 1078.386719 1151.472656 C 1077.84375 1152.492188 1077.273438 1153.5 1076.675781 1154.492188 C 1076.082031 1155.484375 1075.464844 1156.464844 1074.820312 1157.425781 C 1074.175781 1158.386719 1073.511719 1159.332031 1072.820312 1160.265625 C 1072.132812 1161.195312 1071.421875 1162.105469 1070.6875 1163 C 1069.953125 1163.894531 1069.195312 1164.773438 1068.417969 1165.628906 C 1067.640625 1166.488281 1066.84375 1167.324219 1066.027344 1168.144531 C 1065.207031 1168.964844 1064.371094 1169.761719 1063.511719 1170.539062 C 1062.65625 1171.316406 1061.78125 1172.074219 1060.886719 1172.808594 C 1059.992188 1173.542969 1059.078125 1174.253906 1058.148438 1174.945312 C 1057.21875 1175.632812 1056.273438 1176.300781 1055.3125 1176.945312 C 1054.351562 1177.585938 1053.371094 1178.207031 1052.378906 1178.800781 C 1051.386719 1179.398438 1050.382812 1179.96875 1049.359375 1180.515625 C 1048.339844 1181.0625 1047.308594 1181.582031 1046.261719 1182.078125 C 1045.214844 1182.574219 1044.15625 1183.042969 1043.089844 1183.488281 C 1042.019531 1183.929688 1040.941406 1184.347656 1039.851562 1184.738281 C 1038.761719 1185.128906 1037.664062 1185.492188 1036.554688 1185.828125 C 1035.449219 1186.167969 1034.332031 1186.476562 1033.210938 1186.757812 C 1032.089844 1187.039062 1030.960938 1187.296875 1029.824219 1187.523438 C 1028.6875 1187.75 1027.550781 1187.949219 1026.40625 1188.117188 C 1025.257812 1188.289062 1024.109375 1188.433594 1022.960938 1188.546875 C 1021.808594 1188.660156 1020.652344 1188.746094 1019.496094 1188.804688 C 1018.34375 1188.863281 1017.183594 1188.894531 1016.027344 1188.894531 Z M 1016.027344 1188.894531 " fill-opacity="1" fill-rule="evenodd"/></svg>